<svg width="49" height="48" viewBox="0 0 49 48" fill="none" xmlns="http://www.w3.org/2000/svg">
<path d="M0.799988 8C0.799988 3.58172 4.38171 0 8.79999 0H40.8C45.2183 0 48.8 3.58172 48.8 8V40C48.8 44.4183 45.2183 48 40.8 48H8.79999C4.38171 48 0.799988 44.4183 0.799988 40V8Z" fill="#F5EBF9"/>
<g clip-path="url(#clip0_471_48923)">
<path d="M19.0207 21.2728H15.8552C15.5753 21.2728 15.3069 21.3772 15.109 21.5631C14.9112 21.749 14.8 22.0011 14.8 22.2639V31.1843C14.8 31.71 15.0223 32.2142 15.4181 32.586C15.8139 32.9577 16.3506 33.1666 16.9103 33.1666H17.9655C18.5252 33.1666 19.062 32.9577 19.4577 32.586C19.8535 32.2142 20.0759 31.71 20.0759 31.1843V22.2639C20.0759 22.0011 19.9647 21.749 19.7668 21.5631C19.5689 21.3772 19.3005 21.2728 19.0207 21.2728Z" fill="#57009C"/>
<path d="M32.6894 21.2728H28.5172L30.1612 16.8126C30.2151 16.4045 30.1154 15.9915 29.8793 15.6451C29.6432 15.2988 29.2855 15.0409 28.8683 14.9162C28.4511 14.7915 28.0006 14.8078 27.5948 14.9623C27.189 15.1167 26.8535 15.3996 26.6464 15.762C25.4268 17.7171 23.9259 19.5048 22.1862 21.0746V30.5757H22.3065C24.5318 31.1536 27.4779 32.1754 30.2055 32.1754C31.6828 32.1754 31.8853 31.6541 32.1892 30.8701L34.6731 23.932C34.7889 23.6326 34.8262 23.3113 34.7818 22.9955C34.7374 22.6796 34.6126 22.3785 34.4179 22.1175C34.2233 21.8566 33.9646 21.6436 33.6637 21.4966C33.3628 21.3495 33.0286 21.2727 32.6894 21.2728Z" fill="#57009C"/>
</g>
<defs>
<clipPath id="clip0_471_48923">
<rect width="20" height="20" fill="white" transform="translate(14.8 14)"/>
</clipPath>
</defs>
</svg>
